<?xml version="1.0" encoding="UTF-8" standalone="no"?><svg xmlns="http://www.w3.org/2000/svg" xmlns:xlink="http://www.w3.org/1999/xlink" clip-rule="evenodd" stroke-miterlimit="4.00" viewBox="0 0 1024 768"><desc>SVG generated by Keynote</desc><defs></defs><g transform="matrix(1.00, 0.00, -0.00, -1.00, 0.0, 768.0)"><path d="M 0.0 768.0 L 1024.0 768.0 L 1024.0 0.0 L 0.0 0.0 Z M 0.0 768.0 " fill="#FFFFFF"></path><g><clipPath id="clip-2"><path d="M 593.0 768.0 L 1024.0 768.0 L 1024.0 0.0 L 593.0 0.0 Z M 593.0 768.0 "></path></clipPath><g clip-path="url(#clip-2)"><image xlink:href="../../0BD99C3F-EC98-465D-8308-A46FDFC5F567/assets/C9C45D50B2E7D68C0E9AAA86DD9F4E44.jpeg" width="769.00" height="769.00" transform="matrix(1.00, 0.00, -0.00, -1.00, 330.0, 769.0)"></image></g></g><path d="M 0.0 0.0 L 508.0 0.0 " fill="none" stroke="#747676" stroke-width="3.00" stroke-linecap="round" stroke-linejoin="round" stroke-dasharray="0.0, 9.0" transform="matrix(1.00, 0.00, 0.00, -1.00, 45.0, 168.0)"></path><text xml:space="preserve" font-family="DINCondensed-Bold" font-weight="bold" font-size="110.0" fill="#5C5C5C" transform="matrix(1.00, 0.00, -0.00, -1.00, 278.6, 300.7)">S</text><text xml:space="preserve" font-family="DINCondensed-Bold" font-weight="bold" font-size="110.0" fill="#5C5C5C" transform="matrix(1.00, 0.00, -0.00, -1.00, 323.3, 300.7)">Y</text><text xml:space="preserve" font-family="DINCondensed-Bold" font-weight="bold" font-size="110.0" fill="#5C5C5C" transform="matrix(1.00, 0.00, -0.00, -1.00, 366.0, 300.7)">S</text><text xml:space="preserve" font-family="DINCondensed-Bold" font-weight="bold" font-size="110.0" fill="#5C5C5C" transform="matrix(1.00, 0.00, -0.00, -1.00, 410.6, 300.7)">T</text><text xml:space="preserve" font-family="DINCondensed-Bold" font-weight="bold" font-size="110.0" fill="#5C5C5C" transform="matrix(1.00, 0.00, -0.00, -1.00, 447.1, 300.7)">E</text><text xml:space="preserve" font-family="DINCondensed-Bold" font-weight="bold" font-size="110.0" fill="#5C5C5C" transform="matrix(1.00, 0.00, -0.00, -1.00, 487.8, 300.7)">M</text><text xml:space="preserve" font-family="DINCondensed-Bold" font-weight="bold" font-size="110.0" fill="#5C5C5C" transform="matrix(1.00, 0.00, -0.00, -1.00, 549.0, 300.7)"> </text><text xml:space="preserve" font-family="DINCondensed-Bold" font-weight="bold" font-size="110.0" fill="#5C5C5C" transform="matrix(1.00, 0.00, -0.00, -1.00, 50.4, 190.7)">A</text><text xml:space="preserve" font-family="DINCondensed-Bold" font-weight="bold" font-size="110.0" fill="#5C5C5C" transform="matrix(1.00, 0.00, -0.00, -1.00, 95.1, 190.7)">R</text><text xml:space="preserve" font-family="DINCondensed-Bold" font-weight="bold" font-size="110.0" fill="#5C5C5C" transform="matrix(1.00, 0.00, -0.00, -1.00, 142.0, 190.7)">C</text><text xml:space="preserve" font-family="DINCondensed-Bold" font-weight="bold" font-size="110.0" fill="#5C5C5C" transform="matrix(1.00, 0.00, -0.00, -1.00, 186.8, 190.7)">H</text><text xml:space="preserve" font-family="DINCondensed-Bold" font-weight="bold" font-size="110.0" fill="#5C5C5C" transform="matrix(1.00, 0.00, -0.00, -1.00, 233.6, 190.7)">I</text><text xml:space="preserve" font-family="DINCondensed-Bold" font-weight="bold" font-size="110.0" fill="#5C5C5C" transform="matrix(1.00, 0.00, -0.00, -1.00, 256.1, 190.7)">T</text><text xml:space="preserve" font-family="DINCondensed-Bold" font-weight="bold" font-size="110.0" fill="#5C5C5C" transform="matrix(1.00, 0.00, -0.00, -1.00, 292.6, 190.7)">E</text><text xml:space="preserve" font-family="DINCondensed-Bold" font-weight="bold" font-size="110.0" fill="#5C5C5C" transform="matrix(1.00, 0.00, -0.00, -1.00, 333.3, 190.7)">C</text><text xml:space="preserve" font-family="DINCondensed-Bold" font-weight="bold" font-size="110.0" fill="#5C5C5C" transform="matrix(1.00, 0.00, -0.00, -1.00, 378.1, 190.7)">T</text><text xml:space="preserve" font-family="DINCondensed-Bold" font-weight="bold" font-size="110.0" fill="#5C5C5C" transform="matrix(1.00, 0.00, -0.00, -1.00, 414.6, 190.7)">U</text><text xml:space="preserve" font-family="DINCondensed-Bold" font-weight="bold" font-size="110.0" fill="#5C5C5C" transform="matrix(1.00, 0.00, -0.00, -1.00, 461.4, 190.7)">R</text><text xml:space="preserve" font-family="DINCondensed-Bold" font-weight="bold" font-size="110.0" fill="#5C5C5C" transform="matrix(1.00, 0.00, -0.00, -1.00, 508.3, 190.7)">E</text><text xml:space="preserve" font-family="DINCondensed-Bold" font-weight="bold" font-size="110.0" fill="#5C5C5C" transform="matrix(1.00, 0.00, -0.00, -1.00, 549.0, 190.7)"> </text><text xml:space="preserve" font-family="IowanOldStyle-Italic" font-style="italic" font-size="48.0" fill="#737575" transform="matrix(1.00, 0.00, -0.00, -1.00, 299.1, 109.8)">A</text><text xml:space="preserve" font-family="IowanOldStyle-Italic" font-style="italic" font-size="48.0" fill="#737575" transform="matrix(1.00, 0.00, -0.00, -1.00, 333.0, 109.8)">n</text><text xml:space="preserve" font-family="IowanOldStyle-Italic" font-style="italic" font-size="48.0" fill="#737575" transform="matrix(1.00, 0.00, -0.00, -1.00, 357.3, 109.8)"> </text><text xml:space="preserve" font-family="IowanOldStyle-Italic" font-style="italic" font-size="48.0" fill="#737575" transform="matrix(1.00, 0.00, -0.00, -1.00, 367.8, 109.8)">O</text><text xml:space="preserve" font-family="IowanOldStyle-Italic" font-style="italic" font-size="48.0" fill="#737575" transform="matrix(1.00, 0.00, -0.00, -1.00, 402.9, 109.8)">v</text><text xml:space="preserve" font-family="IowanOldStyle-Italic" font-style="italic" font-size="48.0" fill="#737575" transform="matrix(1.00, 0.00, -0.00, -1.00, 424.9, 109.8)">e</text><text xml:space="preserve" font-family="IowanOldStyle-Italic" font-style="italic" font-size="48.0" fill="#737575" transform="matrix(1.00, 0.00, -0.00, -1.00, 443.1, 109.8)">r</text><text xml:space="preserve" font-family="IowanOldStyle-Italic" font-style="italic" font-size="48.0" fill="#737575" transform="matrix(1.00, 0.00, -0.00, -1.00, 461.7, 109.8)">v</text><text xml:space="preserve" font-family="IowanOldStyle-Italic" font-style="italic" font-size="48.0" fill="#737575" transform="matrix(1.00, 0.00, -0.00, -1.00, 483.7, 109.8)">i</text><text xml:space="preserve" font-family="IowanOldStyle-Italic" font-style="italic" font-size="48.0" fill="#737575" transform="matrix(1.00, 0.00, -0.00, -1.00, 496.9, 109.8)">e</text><text xml:space="preserve" font-family="IowanOldStyle-Italic" font-style="italic" font-size="48.0" fill="#737575" transform="matrix(1.00, 0.00, -0.00, -1.00, 515.1, 109.8)">w</text></g></svg>