<?xml version="1.0" encoding="UTF-8" standalone="no"?><svg xmlns="http://www.w3.org/2000/svg" xmlns:xlink="http://www.w3.org/1999/xlink" clip-rule="evenodd" stroke-miterlimit="4.00" viewBox="0 0 1024 768"><desc>SVG generated by Keynote</desc><defs></defs><g transform="matrix(1.00, 0.00, -0.00, -1.00, 0.0, 768.0)"><path d="M 0.0 768.0 L 1024.0 768.0 L 1024.0 0.0 L 0.0 0.0 Z M 0.0 768.0 " fill="#FFFFFF"></path><path d="M 0.0 0.0 L 934.0 0.0 " fill="none" stroke="#747676" stroke-width="3.00" stroke-linecap="round" stroke-linejoin="round" stroke-dasharray="0.0, 9.0" transform="matrix(1.00, 0.00, 0.00, -1.00, 45.0, 644.0)"></path><text xml:space="preserve" font-family="DINCondensed-Bold" font-weight="bold" font-size="48.4" fill="#747676" transform="matrix(1.00, 0.00, -0.00, -1.00, 49.0, 673.0)">N</text><text xml:space="preserve" font-family="DINCondensed-Bold" font-weight="bold" font-size="48.4" fill="#747676" transform="matrix(1.00, 0.00, -0.00, -1.00, 70.5, 673.0)">O</text><text xml:space="preserve" font-family="DINCondensed-Bold" font-weight="bold" font-size="48.4" fill="#747676" transform="matrix(1.00, 0.00, -0.00, -1.00, 91.1, 673.0)">D</text><text xml:space="preserve" font-family="DINCondensed-Bold" font-weight="bold" font-size="48.4" fill="#747676" transform="matrix(1.00, 0.00, -0.00, -1.00, 111.7, 673.0)">E</text><text xml:space="preserve" font-family="DINCondensed-Bold" font-weight="bold" font-size="48.4" fill="#747676" transform="matrix(1.00, 0.00, -0.00, -1.00, 129.6, 673.0)">M</text><text xml:space="preserve" font-family="DINCondensed-Bold" font-weight="bold" font-size="48.4" fill="#747676" transform="matrix(1.00, 0.00, -0.00, -1.00, 156.5, 673.0)">O</text><text xml:space="preserve" font-family="DINCondensed-Bold" font-weight="bold" font-size="48.4" fill="#747676" transform="matrix(1.00, 0.00, -0.00, -1.00, 177.1, 673.0)">N</text><text xml:space="preserve" font-family="DINCondensed-Bold" font-weight="bold" font-size="48.4" fill="#747676" transform="matrix(1.00, 0.00, -0.00, -1.00, 198.5, 673.0)"> </text><text xml:space="preserve" font-family="DINCondensed-Bold" font-weight="bold" font-size="48.4" fill="#747676" transform="matrix(1.00, 0.00, -0.00, -1.00, 207.5, 673.0)">A</text><text xml:space="preserve" font-family="DINCondensed-Bold" font-weight="bold" font-size="48.4" fill="#747676" transform="matrix(1.00, 0.00, -0.00, -1.00, 227.2, 673.0)">P</text><text xml:space="preserve" font-family="DINCondensed-Bold" font-weight="bold" font-size="48.4" fill="#747676" transform="matrix(1.00, 0.00, -0.00, -1.00, 246.9, 673.0)">-</text><text xml:space="preserve" font-family="DINCondensed-Bold" font-weight="bold" font-size="48.4" fill="#747676" transform="matrix(1.00, 0.00, -0.00, -1.00, 265.7, 673.0)">S</text><text xml:space="preserve" font-family="DINCondensed-Bold" font-weight="bold" font-size="48.4" fill="#747676" transform="matrix(1.00, 0.00, -0.00, -1.00, 285.3, 673.0)">E</text><text xml:space="preserve" font-family="DINCondensed-Bold" font-weight="bold" font-size="48.4" fill="#747676" transform="matrix(1.00, 0.00, -0.00, -1.00, 303.2, 673.0)">R</text><text xml:space="preserve" font-family="DINCondensed-Bold" font-weight="bold" font-size="48.4" fill="#747676" transform="matrix(1.00, 0.00, -0.00, -1.00, 323.8, 673.0)">V</text><text xml:space="preserve" font-family="DINCondensed-Bold" font-weight="bold" font-size="48.4" fill="#747676" transform="matrix(1.00, 0.00, -0.00, -1.00, 343.5, 673.0)">E</text><text xml:space="preserve" font-family="DINCondensed-Bold" font-weight="bold" font-size="48.4" fill="#747676" transform="matrix(1.00, 0.00, -0.00, -1.00, 361.4, 673.0)">R</text><text xml:space="preserve" font-family="DINCondensed-Bold" font-weight="bold" font-size="48.4" fill="#747676" transform="matrix(1.00, 0.00, -0.00, -1.00, 382.0, 673.0)">.</text><text xml:space="preserve" font-family="DINCondensed-Bold" font-weight="bold" font-size="48.4" fill="#747676" transform="matrix(1.00, 0.00, -0.00, -1.00, 391.0, 673.0)">J</text><text xml:space="preserve" font-family="DINCondensed-Bold" font-weight="bold" font-size="48.4" fill="#747676" transform="matrix(1.00, 0.00, -0.00, -1.00, 407.1, 673.0)">S</text><text xml:space="preserve" font-family="DINCondensed-Bold" font-weight="bold" font-size="48.4" fill="#747676" transform="matrix(1.00, 0.00, -0.00, -1.00, 426.7, 673.0)"> </text><text xml:space="preserve" font-family="DINCondensed-Bold" font-weight="bold" font-size="48.4" fill="#747676" transform="matrix(1.00, 0.00, -0.00, -1.00, 435.7, 673.0)">—</text><text xml:space="preserve" font-family="DINCondensed-Bold" font-weight="bold" font-size="48.4" fill="#747676" transform="matrix(1.00, 0.00, -0.00, -1.00, 484.1, 673.0)"> </text><text xml:space="preserve" font-family="DINCondensed-Bold" font-weight="bold" font-size="48.4" fill="#747676" transform="matrix(1.00, 0.00, -0.00, -1.00, 493.1, 673.0)">S</text><text xml:space="preserve" font-family="DINCondensed-Bold" font-weight="bold" font-size="48.4" fill="#747676" transform="matrix(1.00, 0.00, -0.00, -1.00, 512.7, 673.0)">T</text><text xml:space="preserve" font-family="DINCondensed-Bold" font-weight="bold" font-size="48.4" fill="#747676" transform="matrix(1.00, 0.00, -0.00, -1.00, 526.1, 673.0)">A</text><text xml:space="preserve" font-family="DINCondensed-Bold" font-weight="bold" font-size="48.4" fill="#747676" transform="matrix(1.00, 0.00, -0.00, -1.00, 545.8, 673.0)">R</text><text xml:space="preserve" font-family="DINCondensed-Bold" font-weight="bold" font-size="48.4" fill="#747676" transform="matrix(1.00, 0.00, -0.00, -1.00, 565.5, 673.0)">T</text><text xml:space="preserve" font-family="DINCondensed-Bold" font-weight="bold" font-size="48.4" fill="#747676" transform="matrix(1.00, 0.00, -0.00, -1.00, 581.6, 673.0)">I</text><text xml:space="preserve" font-family="DINCondensed-Bold" font-weight="bold" font-size="48.4" fill="#747676" transform="matrix(1.00, 0.00, -0.00, -1.00, 591.5, 673.0)">N</text><text xml:space="preserve" font-family="DINCondensed-Bold" font-weight="bold" font-size="48.4" fill="#747676" transform="matrix(1.00, 0.00, -0.00, -1.00, 612.9, 673.0)">G</text><text xml:space="preserve" font-family="DINCondensed-Bold" font-weight="bold" font-size="48.4" fill="#747676" transform="matrix(1.00, 0.00, -0.00, -1.00, 633.5, 673.0)"> </text><text xml:space="preserve" font-family="DINCondensed-Bold" font-weight="bold" font-size="48.4" fill="#747676" transform="matrix(1.00, 0.00, -0.00, -1.00, 642.5, 673.0)">T</text><text xml:space="preserve" font-family="DINCondensed-Bold" font-weight="bold" font-size="48.4" fill="#747676" transform="matrix(1.00, 0.00, -0.00, -1.00, 658.6, 673.0)">H</text><text xml:space="preserve" font-family="DINCondensed-Bold" font-weight="bold" font-size="48.4" fill="#747676" transform="matrix(1.00, 0.00, -0.00, -1.00, 679.2, 673.0)">E</text><text xml:space="preserve" font-family="DINCondensed-Bold" font-weight="bold" font-size="48.4" fill="#747676" transform="matrix(1.00, 0.00, -0.00, -1.00, 697.1, 673.0)"> </text><text xml:space="preserve" font-family="DINCondensed-Bold" font-weight="bold" font-size="48.4" fill="#747676" transform="matrix(1.00, 0.00, -0.00, -1.00, 706.1, 673.0)">S</text><text xml:space="preserve" font-family="DINCondensed-Bold" font-weight="bold" font-size="48.4" fill="#747676" transform="matrix(1.00, 0.00, -0.00, -1.00, 725.7, 673.0)">E</text><text xml:space="preserve" font-family="DINCondensed-Bold" font-weight="bold" font-size="48.4" fill="#747676" transform="matrix(1.00, 0.00, -0.00, -1.00, 743.6, 673.0)">R</text><text xml:space="preserve" font-family="DINCondensed-Bold" font-weight="bold" font-size="48.4" fill="#747676" transform="matrix(1.00, 0.00, -0.00, -1.00, 764.2, 673.0)">V</text><text xml:space="preserve" font-family="DINCondensed-Bold" font-weight="bold" font-size="48.4" fill="#747676" transform="matrix(1.00, 0.00, -0.00, -1.00, 783.9, 673.0)">E</text><text xml:space="preserve" font-family="DINCondensed-Bold" font-weight="bold" font-size="48.4" fill="#747676" transform="matrix(1.00, 0.00, -0.00, -1.00, 801.8, 673.0)">R</text><text xml:space="preserve" font-family="Courier" font-size="14.0" fill="#5C5C5C" transform="matrix(1.00, 0.00, -0.00, -1.00, 54.0, 614.0)">/</text><text xml:space="preserve" font-family="Courier" font-size="14.0" fill="#5C5C5C" transform="matrix(1.00, 0.00, -0.00, -1.00, 62.5, 614.0)">/</text><text xml:space="preserve" font-family="Courier" font-size="14.0" fill="#5C5C5C" transform="matrix(1.00, 0.00, -0.00, -1.00, 71.1, 614.0)"> </text><text xml:space="preserve" font-family="Courier" font-size="14.0" fill="#5C5C5C" transform="matrix(1.00, 0.00, -0.00, -1.00, 79.6, 614.0)">G</text><text xml:space="preserve" font-family="Courier" font-size="14.0" fill="#5C5C5C" transform="matrix(1.00, 0.00, -0.00, -1.00, 88.2, 614.0)">L</text><text xml:space="preserve" font-family="Courier" font-size="14.0" fill="#5C5C5C" transform="matrix(1.00, 0.00, -0.00, -1.00, 96.7, 614.0)">O</text><text xml:space="preserve" font-family="Courier" font-size="14.0" fill="#5C5C5C" transform="matrix(1.00, 0.00, -0.00, -1.00, 105.3, 614.0)">B</text><text xml:space="preserve" font-family="Courier" font-size="14.0" fill="#5C5C5C" transform="matrix(1.00, 0.00, -0.00, -1.00, 113.8, 614.0)">A</text><text xml:space="preserve" font-family="Courier" font-size="14.0" fill="#5C5C5C" transform="matrix(1.00, 0.00, -0.00, -1.00, 122.3, 614.0)">L</text><text xml:space="preserve" font-family="Courier" font-size="14.0" fill="#5C5C5C" transform="matrix(1.00, 0.00, -0.00, -1.00, 130.9, 614.0)"> </text><text xml:space="preserve" font-family="Courier" font-size="14.0" fill="#5C5C5C" transform="matrix(1.00, 0.00, -0.00, -1.00, 139.4, 614.0)">V</text><text xml:space="preserve" font-family="Courier" font-size="14.0" fill="#5C5C5C" transform="matrix(1.00, 0.00, -0.00, -1.00, 148.0, 614.0)">A</text><text xml:space="preserve" font-family="Courier" font-size="14.0" fill="#5C5C5C" transform="matrix(1.00, 0.00, -0.00, -1.00, 156.5, 614.0)">R</text><text xml:space="preserve" font-family="Courier" font-size="14.0" fill="#5C5C5C" transform="matrix(1.00, 0.00, -0.00, -1.00, 165.1, 614.0)">I</text><text xml:space="preserve" font-family="Courier" font-size="14.0" fill="#5C5C5C" transform="matrix(1.00, 0.00, -0.00, -1.00, 173.6, 614.0)">A</text><text xml:space="preserve" font-family="Courier" font-size="14.0" fill="#5C5C5C" transform="matrix(1.00, 0.00, -0.00, -1.00, 182.1, 614.0)">B</text><text xml:space="preserve" font-family="Courier" font-size="14.0" fill="#5C5C5C" transform="matrix(1.00, 0.00, -0.00, -1.00, 190.7, 614.0)">L</text><text xml:space="preserve" font-family="Courier" font-size="14.0" fill="#5C5C5C" transform="matrix(1.00, 0.00, -0.00, -1.00, 199.2, 614.0)">E</text><text xml:space="preserve" font-family="Courier" font-size="14.0" fill="#5C5C5C" transform="matrix(1.00, 0.00, -0.00, -1.00, 207.8, 614.0)">S</text><text xml:space="preserve" font-family="Courier" font-size="14.0" fill="#5C5C5C" transform="matrix(1.00, 0.00, -0.00, -1.00, 54.0, 597.0)">r</text><text xml:space="preserve" font-family="Courier" font-size="14.0" fill="#5C5C5C" transform="matrix(1.00, 0.00, -0.00, -1.00, 62.5, 597.0)">e</text><text xml:space="preserve" font-family="Courier" font-size="14.0" fill="#5C5C5C" transform="matrix(1.00, 0.00, -0.00, -1.00, 71.1, 597.0)">q</text><text xml:space="preserve" font-family="Courier" font-size="14.0" fill="#5C5C5C" transform="matrix(1.00, 0.00, -0.00, -1.00, 79.6, 597.0)">u</text><text xml:space="preserve" font-family="Courier" font-size="14.0" fill="#5C5C5C" transform="matrix(1.00, 0.00, -0.00, -1.00, 88.2, 597.0)">i</text><text xml:space="preserve" font-family="Courier" font-size="14.0" fill="#5C5C5C" transform="matrix(1.00, 0.00, -0.00, -1.00, 96.7, 597.0)">r</text><text xml:space="preserve" font-family="Courier" font-size="14.0" fill="#5C5C5C" transform="matrix(1.00, 0.00, -0.00, -1.00, 105.3, 597.0)">e</text><text xml:space="preserve" font-family="Courier" font-size="14.0" fill="#5C5C5C" transform="matrix(1.00, 0.00, -0.00, -1.00, 113.8, 597.0)">(</text><text xml:space="preserve" font-family="Courier" font-size="14.0" fill="#5C5C5C" transform="matrix(1.00, 0.00, -0.00, -1.00, 122.3, 597.0)">'</text><text xml:space="preserve" font-family="Courier" font-size="14.0" fill="#5C5C5C" transform="matrix(1.00, 0.00, -0.00, -1.00, 130.9, 597.0)">.</text><text xml:space="preserve" font-family="Courier" font-size="14.0" fill="#5C5C5C" transform="matrix(1.00, 0.00, -0.00, -1.00, 139.4, 597.0)">/</text><text xml:space="preserve" font-family="Courier" font-size="14.0" fill="#5C5C5C" transform="matrix(1.00, 0.00, -0.00, -1.00, 148.0, 597.0)">g</text><text xml:space="preserve" font-family="Courier" font-size="14.0" fill="#5C5C5C" transform="matrix(1.00, 0.00, -0.00, -1.00, 156.5, 597.0)">l</text><text xml:space="preserve" font-family="Courier" font-size="14.0" fill="#5C5C5C" transform="matrix(1.00, 0.00, -0.00, -1.00, 165.1, 597.0)">o</text><text xml:space="preserve" font-family="Courier" font-size="14.0" fill="#5C5C5C" transform="matrix(1.00, 0.00, -0.00, -1.00, 173.6, 597.0)">b</text><text xml:space="preserve" font-family="Courier" font-size="14.0" fill="#5C5C5C" transform="matrix(1.00, 0.00, -0.00, -1.00, 182.1, 597.0)">a</text><text xml:space="preserve" font-family="Courier" font-size="14.0" fill="#5C5C5C" transform="matrix(1.00, 0.00, -0.00, -1.00, 190.7, 597.0)">l</text><text xml:space="preserve" font-family="Courier" font-size="14.0" fill="#5C5C5C" transform="matrix(1.00, 0.00, -0.00, -1.00, 199.2, 597.0)">s</text><text xml:space="preserve" font-family="Courier" font-size="14.0" fill="#5C5C5C" transform="matrix(1.00, 0.00, -0.00, -1.00, 207.8, 597.0)">.</text><text xml:space="preserve" font-family="Courier" font-size="14.0" fill="#5C5C5C" transform="matrix(1.00, 0.00, -0.00, -1.00, 216.3, 597.0)">j</text><text xml:space="preserve" font-family="Courier" font-size="14.0" fill="#5C5C5C" transform="matrix(1.00, 0.00, -0.00, -1.00, 224.9, 597.0)">s</text><text xml:space="preserve" font-family="Courier" font-size="14.0" fill="#5C5C5C" transform="matrix(1.00, 0.00, -0.00, -1.00, 233.4, 597.0)">'</text><text xml:space="preserve" font-family="Courier" font-size="14.0" fill="#5C5C5C" transform="matrix(1.00, 0.00, -0.00, -1.00, 241.9, 597.0)">)</text><text xml:space="preserve" font-family="IowanOldStyle-Italic" font-style="italic" font-size="28.0" fill="#5C5C5C" transform="matrix(1.00, 0.00, -0.00, -1.00, 649.0, 593.0)">G</text><text xml:space="preserve" font-family="IowanOldStyle-Italic" font-style="italic" font-size="28.0" fill="#5C5C5C" transform="matrix(1.00, 0.00, -0.00, -1.00, 668.7, 593.0)">l</text><text xml:space="preserve" font-family="IowanOldStyle-Italic" font-style="italic" font-size="28.0" fill="#5C5C5C" transform="matrix(1.00, 0.00, -0.00, -1.00, 676.5, 593.0)">o</text><text xml:space="preserve" font-family="IowanOldStyle-Italic" font-style="italic" font-size="28.0" fill="#5C5C5C" transform="matrix(1.00, 0.00, -0.00, -1.00, 689.5, 593.0)">b</text><text xml:space="preserve" font-family="IowanOldStyle-Italic" font-style="italic" font-size="28.0" fill="#5C5C5C" transform="matrix(1.00, 0.00, -0.00, -1.00, 703.1, 593.0)">a</text><text xml:space="preserve" font-family="IowanOldStyle-Italic" font-style="italic" font-size="28.0" fill="#5C5C5C" transform="matrix(1.00, 0.00, -0.00, -1.00, 716.6, 593.0)">l</text><text xml:space="preserve" font-family="IowanOldStyle-Italic" font-style="italic" font-size="28.0" fill="#5C5C5C" transform="matrix(1.00, 0.00, -0.00, -1.00, 724.4, 593.0)"> </text><text xml:space="preserve" font-family="IowanOldStyle-Italic" font-style="italic" font-size="28.0" fill="#5C5C5C" transform="matrix(1.00, 0.00, -0.00, -1.00, 730.8, 593.0)">V</text><text xml:space="preserve" font-family="IowanOldStyle-Italic" font-style="italic" font-size="28.0" fill="#5C5C5C" transform="matrix(1.00, 0.00, -0.00, -1.00, 746.7, 593.0)">a</text><text xml:space="preserve" font-family="IowanOldStyle-Italic" font-style="italic" font-size="28.0" fill="#5C5C5C" transform="matrix(1.00, 0.00, -0.00, -1.00, 760.2, 593.0)">r</text><text xml:space="preserve" font-family="IowanOldStyle-Italic" font-style="italic" font-size="28.0" fill="#5C5C5C" transform="matrix(1.00, 0.00, -0.00, -1.00, 770.8, 593.0)">i</text><text xml:space="preserve" font-family="IowanOldStyle-Italic" font-style="italic" font-size="28.0" fill="#5C5C5C" transform="matrix(1.00, 0.00, -0.00, -1.00, 778.8, 593.0)">a</text><text xml:space="preserve" font-family="IowanOldStyle-Italic" font-style="italic" font-size="28.0" fill="#5C5C5C" transform="matrix(1.00, 0.00, -0.00, -1.00, 792.3, 593.0)">b</text><text xml:space="preserve" font-family="IowanOldStyle-Italic" font-style="italic" font-size="28.0" fill="#5C5C5C" transform="matrix(1.00, 0.00, -0.00, -1.00, 805.9, 593.0)">l</text><text xml:space="preserve" font-family="IowanOldStyle-Italic" font-style="italic" font-size="28.0" fill="#5C5C5C" transform="matrix(1.00, 0.00, -0.00, -1.00, 813.7, 593.0)">e</text><text xml:space="preserve" font-family="IowanOldStyle-Italic" font-style="italic" font-size="28.0" fill="#5C5C5C" transform="matrix(1.00, 0.00, -0.00, -1.00, 824.6, 593.0)">s</text><path d="M 0.0 0.0 L 373.7 0.0 L 374.7 0.0 " fill="none" stroke="#747676" stroke-width="2.00" transform="matrix(-1.00, 0.00, 0.00, 1.00, 641.1, 602.0)"></path><path d="M 267.5 606.8 L 257.9 602.0 L 267.5 597.2 Z M 267.5 606.8 " fill="#747676"></path></g></svg>