<?xml version="1.0" encoding="UTF-8" standalone="no"?><svg xmlns="http://www.w3.org/2000/svg" xmlns:xlink="http://www.w3.org/1999/xlink" clip-rule="evenodd" stroke-miterlimit="4.00" viewBox="0 0 1024 768"><desc>SVG generated by Keynote</desc><defs></defs><g transform="matrix(1.00, 0.00, -0.00, -1.00, 0.0, 768.0)"><path d="M 0.0 768.0 L 1024.0 768.0 L 1024.0 0.0 L 0.0 0.0 Z M 0.0 768.0 " fill="#FFFFFF"></path><path d="M 0.0 0.0 L 934.0 0.0 " fill="none" stroke="#747676" stroke-width="3.00" stroke-linecap="round" stroke-linejoin="round" stroke-dasharray="0.0, 9.0" transform="matrix(1.00, 0.00, 0.00, -1.00, 45.0, 644.0)"></path><text xml:space="preserve" font-family="DINCondensed-Bold" font-weight="bold" font-size="48.4" fill="#747676" transform="matrix(1.00, 0.00, -0.00, -1.00, 49.0, 673.0)">N</text><text xml:space="preserve" font-family="DINCondensed-Bold" font-weight="bold" font-size="48.4" fill="#747676" transform="matrix(1.00, 0.00, -0.00, -1.00, 70.5, 673.0)">O</text><text xml:space="preserve" font-family="DINCondensed-Bold" font-weight="bold" font-size="48.4" fill="#747676" transform="matrix(1.00, 0.00, -0.00, -1.00, 91.1, 673.0)">D</text><text xml:space="preserve" font-family="DINCondensed-Bold" font-weight="bold" font-size="48.4" fill="#747676" transform="matrix(1.00, 0.00, -0.00, -1.00, 111.7, 673.0)">E</text><text xml:space="preserve" font-family="DINCondensed-Bold" font-weight="bold" font-size="48.4" fill="#747676" transform="matrix(1.00, 0.00, -0.00, -1.00, 129.6, 673.0)">M</text><text xml:space="preserve" font-family="DINCondensed-Bold" font-weight="bold" font-size="48.4" fill="#747676" transform="matrix(1.00, 0.00, -0.00, -1.00, 156.5, 673.0)">O</text><text xml:space="preserve" font-family="DINCondensed-Bold" font-weight="bold" font-size="48.4" fill="#747676" transform="matrix(1.00, 0.00, -0.00, -1.00, 177.1, 673.0)">N</text><text xml:space="preserve" font-family="DINCondensed-Bold" font-weight="bold" font-size="48.4" fill="#747676" transform="matrix(1.00, 0.00, -0.00, -1.00, 198.5, 673.0)"> </text><text xml:space="preserve" font-family="DINCondensed-Bold" font-weight="bold" font-size="48.4" fill="#747676" transform="matrix(1.00, 0.00, -0.00, -1.00, 207.5, 673.0)">A</text><text xml:space="preserve" font-family="DINCondensed-Bold" font-weight="bold" font-size="48.4" fill="#747676" transform="matrix(1.00, 0.00, -0.00, -1.00, 227.2, 673.0)">P</text><text xml:space="preserve" font-family="DINCondensed-Bold" font-weight="bold" font-size="48.4" fill="#747676" transform="matrix(1.00, 0.00, -0.00, -1.00, 246.9, 673.0)">-</text><text xml:space="preserve" font-family="DINCondensed-Bold" font-weight="bold" font-size="48.4" fill="#747676" transform="matrix(1.00, 0.00, -0.00, -1.00, 265.7, 673.0)">S</text><text xml:space="preserve" font-family="DINCondensed-Bold" font-weight="bold" font-size="48.4" fill="#747676" transform="matrix(1.00, 0.00, -0.00, -1.00, 285.3, 673.0)">E</text><text xml:space="preserve" font-family="DINCondensed-Bold" font-weight="bold" font-size="48.4" fill="#747676" transform="matrix(1.00, 0.00, -0.00, -1.00, 303.2, 673.0)">R</text><text xml:space="preserve" font-family="DINCondensed-Bold" font-weight="bold" font-size="48.4" fill="#747676" transform="matrix(1.00, 0.00, -0.00, -1.00, 323.8, 673.0)">V</text><text xml:space="preserve" font-family="DINCondensed-Bold" font-weight="bold" font-size="48.4" fill="#747676" transform="matrix(1.00, 0.00, -0.00, -1.00, 343.5, 673.0)">E</text><text xml:space="preserve" font-family="DINCondensed-Bold" font-weight="bold" font-size="48.4" fill="#747676" transform="matrix(1.00, 0.00, -0.00, -1.00, 361.4, 673.0)">R</text><text xml:space="preserve" font-family="DINCondensed-Bold" font-weight="bold" font-size="48.4" fill="#747676" transform="matrix(1.00, 0.00, -0.00, -1.00, 382.0, 673.0)">.</text><text xml:space="preserve" font-family="DINCondensed-Bold" font-weight="bold" font-size="48.4" fill="#747676" transform="matrix(1.00, 0.00, -0.00, -1.00, 391.0, 673.0)">J</text><text xml:space="preserve" font-family="DINCondensed-Bold" font-weight="bold" font-size="48.4" fill="#747676" transform="matrix(1.00, 0.00, -0.00, -1.00, 407.1, 673.0)">S</text><text xml:space="preserve" font-family="DINCondensed-Bold" font-weight="bold" font-size="48.4" fill="#747676" transform="matrix(1.00, 0.00, -0.00, -1.00, 426.7, 673.0)"> </text><text xml:space="preserve" font-family="DINCondensed-Bold" font-weight="bold" font-size="48.4" fill="#747676" transform="matrix(1.00, 0.00, -0.00, -1.00, 435.7, 673.0)">—</text><text xml:space="preserve" font-family="DINCondensed-Bold" font-weight="bold" font-size="48.4" fill="#747676" transform="matrix(1.00, 0.00, -0.00, -1.00, 484.1, 673.0)"> </text><text xml:space="preserve" font-family="DINCondensed-Bold" font-weight="bold" font-size="48.4" fill="#747676" transform="matrix(1.00, 0.00, -0.00, -1.00, 493.1, 673.0)">S</text><text xml:space="preserve" font-family="DINCondensed-Bold" font-weight="bold" font-size="48.4" fill="#747676" transform="matrix(1.00, 0.00, -0.00, -1.00, 512.7, 673.0)">T</text><text xml:space="preserve" font-family="DINCondensed-Bold" font-weight="bold" font-size="48.4" fill="#747676" transform="matrix(1.00, 0.00, -0.00, -1.00, 526.1, 673.0)">A</text><text xml:space="preserve" font-family="DINCondensed-Bold" font-weight="bold" font-size="48.4" fill="#747676" transform="matrix(1.00, 0.00, -0.00, -1.00, 545.8, 673.0)">R</text><text xml:space="preserve" font-family="DINCondensed-Bold" font-weight="bold" font-size="48.4" fill="#747676" transform="matrix(1.00, 0.00, -0.00, -1.00, 565.5, 673.0)">T</text><text xml:space="preserve" font-family="DINCondensed-Bold" font-weight="bold" font-size="48.4" fill="#747676" transform="matrix(1.00, 0.00, -0.00, -1.00, 581.6, 673.0)">I</text><text xml:space="preserve" font-family="DINCondensed-Bold" font-weight="bold" font-size="48.4" fill="#747676" transform="matrix(1.00, 0.00, -0.00, -1.00, 591.5, 673.0)">N</text><text xml:space="preserve" font-family="DINCondensed-Bold" font-weight="bold" font-size="48.4" fill="#747676" transform="matrix(1.00, 0.00, -0.00, -1.00, 612.9, 673.0)">G</text><text xml:space="preserve" font-family="DINCondensed-Bold" font-weight="bold" font-size="48.4" fill="#747676" transform="matrix(1.00, 0.00, -0.00, -1.00, 633.5, 673.0)"> </text><text xml:space="preserve" font-family="DINCondensed-Bold" font-weight="bold" font-size="48.4" fill="#747676" transform="matrix(1.00, 0.00, -0.00, -1.00, 642.5, 673.0)">T</text><text xml:space="preserve" font-family="DINCondensed-Bold" font-weight="bold" font-size="48.4" fill="#747676" transform="matrix(1.00, 0.00, -0.00, -1.00, 658.6, 673.0)">H</text><text xml:space="preserve" font-family="DINCondensed-Bold" font-weight="bold" font-size="48.4" fill="#747676" transform="matrix(1.00, 0.00, -0.00, -1.00, 679.2, 673.0)">E</text><text xml:space="preserve" font-family="DINCondensed-Bold" font-weight="bold" font-size="48.4" fill="#747676" transform="matrix(1.00, 0.00, -0.00, -1.00, 697.1, 673.0)"> </text><text xml:space="preserve" font-family="DINCondensed-Bold" font-weight="bold" font-size="48.4" fill="#747676" transform="matrix(1.00, 0.00, -0.00, -1.00, 706.1, 673.0)">S</text><text xml:space="preserve" font-family="DINCondensed-Bold" font-weight="bold" font-size="48.4" fill="#747676" transform="matrix(1.00, 0.00, -0.00, -1.00, 725.7, 673.0)">E</text><text xml:space="preserve" font-family="DINCondensed-Bold" font-weight="bold" font-size="48.4" fill="#747676" transform="matrix(1.00, 0.00, -0.00, -1.00, 743.6, 673.0)">R</text><text xml:space="preserve" font-family="DINCondensed-Bold" font-weight="bold" font-size="48.4" fill="#747676" transform="matrix(1.00, 0.00, -0.00, -1.00, 764.2, 673.0)">V</text><text xml:space="preserve" font-family="DINCondensed-Bold" font-weight="bold" font-size="48.4" fill="#747676" transform="matrix(1.00, 0.00, -0.00, -1.00, 783.9, 673.0)">E</text><text xml:space="preserve" font-family="DINCondensed-Bold" font-weight="bold" font-size="48.4" fill="#747676" transform="matrix(1.00, 0.00, -0.00, -1.00, 801.8, 673.0)">R</text><text xml:space="preserve" font-family="IowanOldStyle-Italic" font-style="italic" font-size="28.0" fill="#5C5C5C" transform="matrix(1.00, 0.00, -0.00, -1.00, 364.0, 374.0)">G</text><text xml:space="preserve" font-family="IowanOldStyle-Italic" font-style="italic" font-size="28.0" fill="#5C5C5C" transform="matrix(1.00, 0.00, -0.00, -1.00, 383.7, 374.0)">o</text><text xml:space="preserve" font-family="IowanOldStyle-Italic" font-style="italic" font-size="28.0" fill="#5C5C5C" transform="matrix(1.00, 0.00, -0.00, -1.00, 396.7, 374.0)">o</text><text xml:space="preserve" font-family="IowanOldStyle-Italic" font-style="italic" font-size="28.0" fill="#5C5C5C" transform="matrix(1.00, 0.00, -0.00, -1.00, 409.7, 374.0)">d</text><text xml:space="preserve" font-family="IowanOldStyle-Italic" font-style="italic" font-size="28.0" fill="#5C5C5C" transform="matrix(1.00, 0.00, -0.00, -1.00, 423.6, 374.0)"> </text><text xml:space="preserve" font-family="IowanOldStyle-Italic" font-style="italic" font-size="28.0" fill="#5C5C5C" transform="matrix(1.00, 0.00, -0.00, -1.00, 430.0, 374.0)">p</text><text xml:space="preserve" font-family="IowanOldStyle-Italic" font-style="italic" font-size="28.0" fill="#5C5C5C" transform="matrix(1.00, 0.00, -0.00, -1.00, 443.8, 374.0)">l</text><text xml:space="preserve" font-family="IowanOldStyle-Italic" font-style="italic" font-size="28.0" fill="#5C5C5C" transform="matrix(1.00, 0.00, -0.00, -1.00, 451.7, 374.0)">a</text><text xml:space="preserve" font-family="IowanOldStyle-Italic" font-style="italic" font-size="28.0" fill="#5C5C5C" transform="matrix(1.00, 0.00, -0.00, -1.00, 465.2, 374.0)">c</text><text xml:space="preserve" font-family="IowanOldStyle-Italic" font-style="italic" font-size="28.0" fill="#5C5C5C" transform="matrix(1.00, 0.00, -0.00, -1.00, 475.6, 374.0)">e</text><text xml:space="preserve" font-family="IowanOldStyle-Italic" font-style="italic" font-size="28.0" fill="#5C5C5C" transform="matrix(1.00, 0.00, -0.00, -1.00, 486.5, 374.0)"> </text><text xml:space="preserve" font-family="IowanOldStyle-Italic" font-style="italic" font-size="28.0" fill="#5C5C5C" transform="matrix(1.00, 0.00, -0.00, -1.00, 492.9, 374.0)">t</text><text xml:space="preserve" font-family="IowanOldStyle-Italic" font-style="italic" font-size="28.0" fill="#5C5C5C" transform="matrix(1.00, 0.00, -0.00, -1.00, 502.6, 374.0)">o</text><text xml:space="preserve" font-family="IowanOldStyle-Italic" font-style="italic" font-size="28.0" fill="#5C5C5C" transform="matrix(1.00, 0.00, -0.00, -1.00, 515.6, 374.0)"> </text><text xml:space="preserve" font-family="IowanOldStyle-Italic" font-style="italic" font-size="28.0" fill="#5C5C5C" transform="matrix(1.00, 0.00, -0.00, -1.00, 522.0, 374.0)">s</text><text xml:space="preserve" font-family="IowanOldStyle-Italic" font-style="italic" font-size="28.0" fill="#5C5C5C" transform="matrix(1.00, 0.00, -0.00, -1.00, 532.2, 374.0)">w</text><text xml:space="preserve" font-family="IowanOldStyle-Italic" font-style="italic" font-size="28.0" fill="#5C5C5C" transform="matrix(1.00, 0.00, -0.00, -1.00, 552.3, 374.0)">i</text><text xml:space="preserve" font-family="IowanOldStyle-Italic" font-style="italic" font-size="28.0" fill="#5C5C5C" transform="matrix(1.00, 0.00, -0.00, -1.00, 560.2, 374.0)">t</text><text xml:space="preserve" font-family="IowanOldStyle-Italic" font-style="italic" font-size="28.0" fill="#5C5C5C" transform="matrix(1.00, 0.00, -0.00, -1.00, 570.0, 374.0)">c</text><text xml:space="preserve" font-family="IowanOldStyle-Italic" font-style="italic" font-size="28.0" fill="#5C5C5C" transform="matrix(1.00, 0.00, -0.00, -1.00, 580.4, 374.0)">h</text><text xml:space="preserve" font-family="IowanOldStyle-Italic" font-style="italic" font-size="28.0" fill="#5C5C5C" transform="matrix(1.00, 0.00, -0.00, -1.00, 594.6, 374.0)"> </text><text xml:space="preserve" font-family="IowanOldStyle-Italic" font-style="italic" font-size="28.0" fill="#5C5C5C" transform="matrix(1.00, 0.00, -0.00, -1.00, 601.0, 374.0)">g</text><text xml:space="preserve" font-family="IowanOldStyle-Italic" font-style="italic" font-size="28.0" fill="#5C5C5C" transform="matrix(1.00, 0.00, -0.00, -1.00, 614.1, 374.0)">e</text><text xml:space="preserve" font-family="IowanOldStyle-Italic" font-style="italic" font-size="28.0" fill="#5C5C5C" transform="matrix(1.00, 0.00, -0.00, -1.00, 625.1, 374.0)">a</text><text xml:space="preserve" font-family="IowanOldStyle-Italic" font-style="italic" font-size="28.0" fill="#5C5C5C" transform="matrix(1.00, 0.00, -0.00, -1.00, 638.6, 374.0)">r</text><text xml:space="preserve" font-family="IowanOldStyle-Italic" font-style="italic" font-size="28.0" fill="#5C5C5C" transform="matrix(1.00, 0.00, -0.00, -1.00, 649.2, 374.0)">s</text></g></svg>